<?xml version="1.0" encoding="utf-8"?>
<!-- Generator: Adobe Illustrator 27.0.0, SVG Export Plug-In . SVG Version: 6.00 Build 0)  -->
<svg version="1.1" id="Layer_1" xmlns="http://www.w3.org/2000/svg" xmlns:xlink="http://www.w3.org/1999/xlink" x="0px" y="0px"
	 viewBox="0 0 339.7 235.2" style="enable-background:new 0 0 339.7 235.2;" xml:space="preserve">
<style type="text/css">
	.st0{fill:url(#SVGID_1_);}
	.st1{fill:url(#SVGID_00000101063498821490512450000001408220309909760645_);}
	.st2{fill:url(#SVGID_00000113328703936257135200000005940491248913044355_);}
	.st3{fill:url(#SVGID_00000162342840125470594680000007405512885285208477_);}
</style>
<g>
	<linearGradient id="SVGID_1_" gradientUnits="userSpaceOnUse" x1="0" y1="117.625" x2="91.9446" y2="117.625">
		<stop  offset="0.4795" style="stop-color:#1B75BB"/>
		<stop  offset="1" style="stop-color:#35A1FF"/>
	</linearGradient>
	<path class="st0" d="M70.7,235.2c-9.8,0-18.3-2-25.5-5.9c-7.2-3.9-12.5-9.3-15.9-16.2c-3.4-6.9-4.6-15-3.6-24.1l3.8-36.2
		c0.5-5.3-0.6-9.6-3.4-12.8c-2.8-3.2-6.6-4.8-11.6-4.8l-1.9,0C5.6,135.2,0,129.5,0,122.6v-9.7c0-7,5.7-12.7,12.7-12.6l1.7,0
		c5,0,8.9-1.6,11.6-4.9s3.9-7.5,3.4-12.6L25.7,45c-0.8-9,0.5-16.9,3.9-23.6c3.4-6.8,8.7-12,15.7-15.8C52.4,1.9,60.9,0,70.7,0h8.6
		c7,0,12.6,5.7,12.6,12.6v9.7c0,1.4-0.2,2.7-0.6,4c-1.7,5-6.4,8.7-12,8.7h-1.1c-4.8,0-8.6,1.4-11.4,4.1s-4,6.4-3.6,10.9l1.5,37.5
		c0.3,8,0.7,14.3-4.3,19.6c-0.3,0.3-0.6,0.6-1,1c-5.4,5.1-5.5,13.5-0.1,18.7c0.4,0.4,0.7,0.7,1.1,1.1c5.1,5.4-15.2,1.6-15.9,9.4
		l-1.2,47.8c-0.1,4.8,1.5,7.8,4.8,9.9c3.5,2.4,25.2,5.2,30.2,5.2h1.1c7,0,12.6,5.7,12.6,12.6v9.7c0,7-5.7,12.6-12.6,12.6H70.7z"/>
</g>
<g>
	
		<linearGradient id="SVGID_00000078047034922062352810000009830381828789875622_" gradientUnits="userSpaceOnUse" x1="247.7491" y1="117.725" x2="339.6937" y2="117.725">
		<stop  offset="0" style="stop-color:#77DB1F"/>
		<stop  offset="0.5794" style="stop-color:#39B54A"/>
	</linearGradient>
	<path style="fill:url(#SVGID_00000078047034922062352810000009830381828789875622_);" d="M247.7,221.6v-7.5
		c0-7.6,6.2-13.7,13.7-13.7h0c5,0,8.9-1.4,11.6-4.1s3.9-6.4,3.4-10.9l-2.1-37.4c0-0.4,0-0.8,0-1.1c0.2-7.9,2-12.8,5-18.8
		c0.4-0.8,0.9-1.6,1.5-2.3c4.4-5.4,3.6-13.3-1.3-18.2c-0.1-0.1-0.1-0.1-0.2-0.2c-3.2-3.3-6.8-6.9-2.9-8.8
		c23.4-11.2,32.5-16.2,25.9-18.6L279,67.6c-2.3-1.1-4-2.9-3.7-5.4l1.2-12c0.3-4.5-0.9-8.1-3.6-10.9s-6.5-4.1-11.4-4.1h0
		c-7.6,0-13.7-6.2-13.7-13.7v-7.5c0-7.6,6.2-13.7,13.7-13.7h7.5c9.8,0,18.2,1.9,25.2,5.6s12.3,9,15.9,15.8
		c3.6,6.8,4.9,14.6,3.9,23.6l-3.8,37.8c-0.5,5.2,0.6,9.4,3.4,12.6s6.6,4.9,11.6,4.9l0.6,0c7.6-0.1,13.9,6.1,13.9,13.7v7.5
		c0,7.5-6.1,13.7-13.6,13.7l-0.8,0c-5,0-8.9,1.6-11.6,4.8c-2.8,3.2-3.9,7.4-3.4,12.8l3.8,36.2c1,9.2-0.2,17.2-3.8,24.1
		s-8.8,12.3-15.9,16.2c-7.1,3.9-15.5,5.9-25.4,5.9h-7.5C253.9,235.4,247.7,229.2,247.7,221.6z"/>
</g>
<linearGradient id="SVGID_00000137122214124893595740000012027721349489770146_" gradientUnits="userSpaceOnUse" x1="182.7085" y1="117.725" x2="295.2085" y2="117.725">
	<stop  offset="0" style="stop-color:#FBC600"/>
	<stop  offset="0.4672" style="stop-color:#FBB040"/>
</linearGradient>
<path style="fill:url(#SVGID_00000137122214124893595740000012027721349489770146_);" d="M295.2,82L295.2,82l-35,17.4
	c-3.9,2.1-10.2,11.1-12.7,19.9c-1.2,4.1-2.8,28.1-2.3,33.3l3.8,37.8c0.8,9-0.5,16.9-3.9,23.6c-3.4,6.8-8.7,12-15.8,15.8
	c-7.1,3.8-15.5,5.6-25.4,5.6h-11.1c-5.6,0-10.1-4.5-10.1-10.1v-14.8c0-5.6,4.5-10.1,10.1-10.1h3.6c4.8,0,8.6-1.4,11.4-4.1
	s4-6.4,3.6-10.9l0-37.8c0-0.3,0-0.6,0-0.8c-0.7-8.6-2.2-48.3,1.3-53.9c0.9-1.4,15-5.8,16.4-6.5c5.7-2.9,5.7-2-0.1-5.1
	c-4.6-2.4-13.1-6.5-13.2-6.6c-5.1-5.4-4-12.9-4.2-20.7l-0.1-3.6c0-0.2,0-0.5-0.1-0.7c-0.6-5.1-0.6-7.8-3.3-10.5
	c-2.8-2.8-6.6-4.1-11.6-4.1h-3.6c-5.6,0-10.1-4.5-10.1-10.1V10.2c0-5.6,4.5-10.1,10.1-10.1H204c9.8,0,18.3,2,25.5,5.9
	c7.2,3.9,12.7,7.8,14.6,15.6c1.7,7,1.1,5.6,0.8,16.9l-0.1,8.2c-0.1,5.5,1,9.7,3.8,12.8"/>
<linearGradient id="SVGID_00000093870447333389100710000006554498387992952748_" gradientUnits="userSpaceOnUse" x1="49.4496" y1="117.725" x2="160.3933" y2="117.725">
	<stop  offset="0.5282" style="stop-color:#BE1E2D"/>
	<stop  offset="1" style="stop-color:#E65100"/>
</linearGradient>
<path style="fill:url(#SVGID_00000093870447333389100710000006554498387992952748_);" d="M139.1,235.4c-9.8,0-18.4-1.8-25.6-5.7
	c-7-3.8-11.4-8-15.6-15.6c-3.2-5.8-4.2-11.7-4-22.3c0-0.3,0-0.7,0.1-1l0.1-1.2c0.5-5.6,0.2-8.2-2.2-11.7c-1.7-2.4-1.9-2.2-5.4-1.2
	c-0.3,0.1-0.5,0.2-0.8,0.3l-25.5,14.3c-0.6,0.3-1.2,0.5-1.8,0.5c-5.1,0-9.1-0.6-9.1-5.9v-45.5c0-5.5,7.3-4.3,12.8-4.2
	c0.1,0,0.3,0,0.4,0l23.3,3c5,0,7.1-14.1,9.6-22.9c1.2-4.1,2.8-28.1,2.3-33.3l-3.8-37.8c-0.8-9,0.5-16.9,3.9-23.6
	c3.4-6.8,8.7-12,15.8-15.8c7.1-3.8,15.5-5.6,25.4-5.6h7.5c7.6,0,13.7,6.2,13.7,13.7v7.5c0,7.6-6.2,13.7-13.7,13.7h0
	c-4.8,0-8.6,1.4-11.4,4.1s-4,6.4-3.6,10.9l0,37.7c0,0.4,0,0.7,0,1.1c0.7,8.8,1.9,45-1.6,50.5c-1,1.5-3,6.6-6.3,8.3
	c-4.1,2.1-3.9,11.7-1,13.8c3.8,2.7,5.7,5.5,5.7,5.6c3.9,6,2.8,6.6,3,14.4l0.1,3.5c0,0.3,0,0.7,0.1,1c0.5,5,0.7,7.7,3.3,10.4
	c2.8,2.8,6.6,4.1,11.6,4.1h0c7.6,0,13.7,6.2,13.7,13.7v7.5c0,7.6-6.2,13.7-13.7,13.7H139.1z"/>
</svg>
